<?xml version="1.0" encoding="windows-1252" standalone="no"?>
<svg xmlns="http://www.w3.org/2000/svg" xmlns:xlink="http://www.w3.org/1999/xlink" contentStyleType="text/css" height="543px" preserveAspectRatio="none" style="width:625px;height:543px;background:#FFFFFF;" version="1.1" viewBox="0 0 625 543" width="625px" zoomAndPan="magnify"><defs/><g><!--cluster Adventure--><g id="cluster_Adventure"><rect fill="none" height="224" rx="2.5" ry="2.5" style="stroke:#181818;stroke-width:1.0;" width="601" x="17" y="7"/><text fill="#000000" font-family="sans-serif" font-size="14" font-weight="bold" lengthAdjust="spacing" textLength="83" x="276" y="21.9951">Adventure</text></g><!--cluster TinyTranslations--><g id="cluster_TinyTranslations"><rect fill="none" height="273" rx="2.5" ry="2.5" style="stroke:#181818;stroke-width:1.0;" width="612" x="7" y="264"/><text fill="#000000" font-family="sans-serif" font-size="14" font-weight="bold" lengthAdjust="spacing" textLength="139" x="243.5" y="278.9951">TinyTranslations</text></g><!--cluster Persistent--><g id="cluster_Persistent"><rect fill="none" height="99" rx="2.5" ry="2.5" style="stroke:#181818;stroke-width:1.0;" width="341" x="31" y="413.5"/><text fill="#000000" font-family="sans-serif" font-size="14" font-weight="bold" lengthAdjust="spacing" textLength="84" x="159.5" y="428.4951">Persistent</text></g><!--class GlobalTranslator--><g id="elem_GlobalTranslator"><rect codeLine="2" fill="#F1F1F1" height="48" id="GlobalTranslator" rx="2.5" ry="2.5" style="stroke:#181818;stroke-width:0.5;" width="151" x="122.5" y="42"/><ellipse cx="137.5" cy="58" fill="#ADD1B2" rx="11" ry="11" style="stroke:#181818;stroke-width:1.0;"/><path d="M139.8438,53.6719 C138.9063,53.2344 138.3125,53.0938 137.4375,53.0938 C134.8125,53.0938 132.8125,55.1719 132.8125,57.8906 L132.8125,59.0156 C132.8125,61.5938 134.9219,63.4844 137.8125,63.4844 C139.0313,63.4844 140.1875,63.1875 140.9375,62.6406 C141.5156,62.2344 141.8438,61.7813 141.8438,61.3906 C141.8438,60.9375 141.4531,60.5469 140.9844,60.5469 C140.7656,60.5469 140.5625,60.625 140.375,60.8125 C139.9219,61.2969 139.9219,61.2969 139.7344,61.3906 C139.3125,61.6563 138.625,61.7813 137.8594,61.7813 C135.8125,61.7813 134.5156,60.6875 134.5156,58.9844 L134.5156,57.8906 C134.5156,56.1094 135.7656,54.7969 137.5,54.7969 C138.0781,54.7969 138.6875,54.9531 139.1563,55.2031 C139.6406,55.4844 139.8125,55.7031 139.9063,56.1094 C139.9688,56.5156 140,56.6406 140.1406,56.7656 C140.2813,56.9063 140.5156,57.0156 140.7344,57.0156 C141,57.0156 141.2656,56.875 141.4375,56.6563 C141.5469,56.5 141.5781,56.3125 141.5781,55.8906 L141.5781,54.4688 C141.5781,54.0313 141.5625,53.9063 141.4688,53.75 C141.3125,53.4844 141.0313,53.3438 140.7344,53.3438 C140.4375,53.3438 140.2344,53.4375 140.0156,53.75 L139.8438,53.6719 Z " fill="#000000"/><text fill="#000000" font-family="sans-serif" font-size="14" lengthAdjust="spacing" textLength="119" x="151.5" y="62.8467">GlobalTranslator</text><line style="stroke:#181818;stroke-width:0.5;" x1="123.5" x2="272.5" y1="74" y2="74"/><line style="stroke:#181818;stroke-width:0.5;" x1="123.5" x2="272.5" y1="82" y2="82"/></g><!--class Translator--><g id="elem_Translator"><rect codeLine="3" fill="#F1F1F1" height="64.2969" id="Translator" rx="2.5" ry="2.5" style="stroke:#181818;stroke-width:0.5;" width="330" x="33" y="151"/><ellipse cx="157.25" cy="167" fill="#B4A7E5" rx="11" ry="11" style="stroke:#181818;stroke-width:1.0;"/><path d="M158.2031,163.7813 L159.9219,163.7813 C160.3125,163.7813 160.5,163.75 160.625,163.6719 C160.8906,163.5156 161.0313,163.2344 161.0313,162.9375 C161.0313,162.6719 160.9219,162.4063 160.6875,162.2344 C160.5156,162.125 160.375,162.0938 159.9219,162.0938 L154.7813,162.0938 C154.3438,162.0938 154.2188,162.1094 154.0625,162.2031 C153.8125,162.3594 153.6563,162.6563 153.6563,162.9375 C153.6563,163.2188 153.7969,163.4688 154.0156,163.6406 C154.1719,163.75 154.3594,163.7813 154.7813,163.7813 L156.5,163.7813 L156.5,170.2969 L154.7813,170.2969 C154.3438,170.2969 154.2188,170.3125 154.0625,170.4219 C153.8125,170.5781 153.6563,170.8594 153.6563,171.1563 C153.6563,171.4063 153.7969,171.6719 154.0156,171.8281 C154.1719,171.9531 154.375,172 154.7813,172 L159.9219,172 C160.6719,172 161.0313,171.7188 161.0313,171.1563 C161.0313,170.875 160.9219,170.625 160.6875,170.4531 C160.5156,170.3281 160.375,170.2969 159.9219,170.2969 L158.2031,170.2969 L158.2031,163.7813 Z " fill="#000000"/><text fill="#000000" font-family="sans-serif" font-size="14" font-style="italic" lengthAdjust="spacing" textLength="73" x="177.75" y="171.8467">Translator</text><line style="stroke:#181818;stroke-width:0.5;" x1="34" x2="362" y1="183" y2="183"/><line style="stroke:#181818;stroke-width:0.5;" x1="34" x2="362" y1="191" y2="191"/><ellipse cx="44" cy="204.6484" fill="#84BE84" rx="3" ry="3" style="stroke:#038048;stroke-width:1.0;"/><text fill="#000000" font-family="sans-serif" font-size="14" lengthAdjust="spacing" textLength="304" x="53" y="207.9951">translate(TranslatableComponent, Locale)</text></g><!--class Component--><g id="elem_Component"><rect codeLine="6" fill="#F1F1F1" height="48" id="Component" rx="2.5" ry="2.5" style="stroke:#181818;stroke-width:0.5;" width="115" x="442.5" y="42"/><ellipse cx="457.5" cy="58" fill="#B4A7E5" rx="11" ry="11" style="stroke:#181818;stroke-width:1.0;"/><path d="M458.4531,54.7813 L460.1719,54.7813 C460.5625,54.7813 460.75,54.75 460.875,54.6719 C461.1406,54.5156 461.2813,54.2344 461.2813,53.9375 C461.2813,53.6719 461.1719,53.4063 460.9375,53.2344 C460.7656,53.125 460.625,53.0938 460.1719,53.0938 L455.0313,53.0938 C454.5938,53.0938 454.4688,53.1094 454.3125,53.2031 C454.0625,53.3594 453.9063,53.6563 453.9063,53.9375 C453.9063,54.2188 454.0469,54.4688 454.2656,54.6406 C454.4219,54.75 454.6094,54.7813 455.0313,54.7813 L456.75,54.7813 L456.75,61.2969 L455.0313,61.2969 C454.5938,61.2969 454.4688,61.3125 454.3125,61.4219 C454.0625,61.5781 453.9063,61.8594 453.9063,62.1563 C453.9063,62.4063 454.0469,62.6719 454.2656,62.8281 C454.4219,62.9531 454.625,63 455.0313,63 L460.1719,63 C460.9219,63 461.2813,62.7188 461.2813,62.1563 C461.2813,61.875 461.1719,61.625 460.9375,61.4531 C460.7656,61.3281 460.625,61.2969 460.1719,61.2969 L458.4531,61.2969 L458.4531,54.7813 Z " fill="#000000"/><text fill="#000000" font-family="sans-serif" font-size="14" font-style="italic" lengthAdjust="spacing" textLength="83" x="471.5" y="62.8467">Component</text><line style="stroke:#181818;stroke-width:0.5;" x1="443.5" x2="556.5" y1="74" y2="74"/><line style="stroke:#181818;stroke-width:0.5;" x1="443.5" x2="556.5" y1="82" y2="82"/></g><!--class TranslatableComponent--><g id="elem_TranslatableComponent"><rect codeLine="7" fill="#F1F1F1" height="48" id="TranslatableComponent" rx="2.5" ry="2.5" style="stroke:#181818;stroke-width:0.5;" width="204" x="398" y="159"/><ellipse cx="413" cy="175" fill="#B4A7E5" rx="11" ry="11" style="stroke:#181818;stroke-width:1.0;"/><path d="M413.9531,171.7813 L415.6719,171.7813 C416.0625,171.7813 416.25,171.75 416.375,171.6719 C416.6406,171.5156 416.7813,171.2344 416.7813,170.9375 C416.7813,170.6719 416.6719,170.4063 416.4375,170.2344 C416.2656,170.125 416.125,170.0938 415.6719,170.0938 L410.5313,170.0938 C410.0938,170.0938 409.9688,170.1094 409.8125,170.2031 C409.5625,170.3594 409.4063,170.6563 409.4063,170.9375 C409.4063,171.2188 409.5469,171.4688 409.7656,171.6406 C409.9219,171.75 410.1094,171.7813 410.5313,171.7813 L412.25,171.7813 L412.25,178.2969 L410.5313,178.2969 C410.0938,178.2969 409.9688,178.3125 409.8125,178.4219 C409.5625,178.5781 409.4063,178.8594 409.4063,179.1563 C409.4063,179.4063 409.5469,179.6719 409.7656,179.8281 C409.9219,179.9531 410.125,180 410.5313,180 L415.6719,180 C416.4219,180 416.7813,179.7188 416.7813,179.1563 C416.7813,178.875 416.6719,178.625 416.4375,178.4531 C416.2656,178.3281 416.125,178.2969 415.6719,178.2969 L413.9531,178.2969 L413.9531,171.7813 Z " fill="#000000"/><text fill="#000000" font-family="sans-serif" font-size="14" font-style="italic" lengthAdjust="spacing" textLength="172" x="427" y="179.8467">TranslatableComponent</text><line style="stroke:#181818;stroke-width:0.5;" x1="399" x2="601" y1="191" y2="191"/><line style="stroke:#181818;stroke-width:0.5;" x1="399" x2="601" y1="199" y2="199"/></g><!--class MessageTranslator--><g id="elem_MessageTranslator"><rect codeLine="10" fill="#F1F1F1" height="64.2969" id="MessageTranslator" rx="2.5" ry="2.5" style="stroke:#181818;stroke-width:0.5;" width="167" x="129.5" y="299"/><ellipse cx="144.5" cy="315" fill="#B4A7E5" rx="11" ry="11" style="stroke:#181818;stroke-width:1.0;"/><path d="M145.4531,311.7813 L147.1719,311.7813 C147.5625,311.7813 147.75,311.75 147.875,311.6719 C148.1406,311.5156 148.2813,311.2344 148.2813,310.9375 C148.2813,310.6719 148.1719,310.4063 147.9375,310.2344 C147.7656,310.125 147.625,310.0938 147.1719,310.0938 L142.0313,310.0938 C141.5938,310.0938 141.4688,310.1094 141.3125,310.2031 C141.0625,310.3594 140.9063,310.6563 140.9063,310.9375 C140.9063,311.2188 141.0469,311.4688 141.2656,311.6406 C141.4219,311.75 141.6094,311.7813 142.0313,311.7813 L143.75,311.7813 L143.75,318.2969 L142.0313,318.2969 C141.5938,318.2969 141.4688,318.3125 141.3125,318.4219 C141.0625,318.5781 140.9063,318.8594 140.9063,319.1563 C140.9063,319.4063 141.0469,319.6719 141.2656,319.8281 C141.4219,319.9531 141.625,320 142.0313,320 L147.1719,320 C147.9219,320 148.2813,319.7188 148.2813,319.1563 C148.2813,318.875 148.1719,318.625 147.9375,318.4531 C147.7656,318.3281 147.625,318.2969 147.1719,318.2969 L145.4531,318.2969 L145.4531,311.7813 Z " fill="#000000"/><text fill="#000000" font-family="sans-serif" font-size="14" font-style="italic" lengthAdjust="spacing" textLength="135" x="158.5" y="319.8467">MessageTranslator</text><line style="stroke:#181818;stroke-width:0.5;" x1="130.5" x2="295.5" y1="331" y2="331"/><line style="stroke:#181818;stroke-width:0.5;" x1="130.5" x2="295.5" y1="339" y2="339"/><ellipse cx="140.5" cy="352.6484" fill="#84BE84" rx="3" ry="3" style="stroke:#038048;stroke-width:1.0;"/><text fill="#000000" font-family="sans-serif" font-size="14" lengthAdjust="spacing" textLength="107" x="149.5" y="355.9951">defaultLocale()</text></g><!--class Message--><g id="elem_Message"><rect codeLine="13" fill="#F1F1F1" height="96.8906" id="Message" rx="2.5" ry="2.5" style="stroke:#181818;stroke-width:0.5;" width="212" x="391" y="424"/><ellipse cx="461.75" cy="440" fill="#B4A7E5" rx="11" ry="11" style="stroke:#181818;stroke-width:1.0;"/><path d="M462.7031,436.7813 L464.4219,436.7813 C464.8125,436.7813 465,436.75 465.125,436.6719 C465.3906,436.5156 465.5313,436.2344 465.5313,435.9375 C465.5313,435.6719 465.4219,435.4063 465.1875,435.2344 C465.0156,435.125 464.875,435.0938 464.4219,435.0938 L459.2813,435.0938 C458.8438,435.0938 458.7188,435.1094 458.5625,435.2031 C458.3125,435.3594 458.1563,435.6563 458.1563,435.9375 C458.1563,436.2188 458.2969,436.4688 458.5156,436.6406 C458.6719,436.75 458.8594,436.7813 459.2813,436.7813 L461,436.7813 L461,443.2969 L459.2813,443.2969 C458.8438,443.2969 458.7188,443.3125 458.5625,443.4219 C458.3125,443.5781 458.1563,443.8594 458.1563,444.1563 C458.1563,444.4063 458.2969,444.6719 458.5156,444.8281 C458.6719,444.9531 458.875,445 459.2813,445 L464.4219,445 C465.1719,445 465.5313,444.7188 465.5313,444.1563 C465.5313,443.875 465.4219,443.625 465.1875,443.4531 C465.0156,443.3281 464.875,443.2969 464.4219,443.2969 L462.7031,443.2969 L462.7031,436.7813 Z " fill="#000000"/><text fill="#000000" font-family="sans-serif" font-size="14" font-style="italic" lengthAdjust="spacing" textLength="62" x="482.25" y="444.8467">Message</text><line style="stroke:#181818;stroke-width:0.5;" x1="392" x2="602" y1="456" y2="456"/><line style="stroke:#181818;stroke-width:0.5;" x1="392" x2="602" y1="464" y2="464"/><ellipse cx="402" cy="477.6484" fill="#84BE84" rx="3" ry="3" style="stroke:#038048;stroke-width:1.0;"/><text fill="#000000" font-family="sans-serif" font-size="14" lengthAdjust="spacing" textLength="82" x="411" y="480.9951">dictionary()</text><ellipse cx="402" cy="493.9453" fill="#84BE84" rx="3" ry="3" style="stroke:#038048;stroke-width:1.0;"/><text fill="#000000" font-family="sans-serif" font-size="14" lengthAdjust="spacing" textLength="186" x="411" y="497.292">placeholderDescriptions()</text><ellipse cx="402" cy="510.2422" fill="#84BE84" rx="3" ry="3" style="stroke:#038048;stroke-width:1.0;"/><text fill="#000000" font-family="sans-serif" font-size="14" lengthAdjust="spacing" textLength="80" x="411" y="513.5889">comment()</text></g><!--class MessageStorage--><g id="elem_MessageStorage"><rect codeLine="19" fill="#F1F1F1" height="48" id="MessageStorage" rx="2.5" ry="2.5" style="stroke:#181818;stroke-width:0.5;" width="150" x="206" y="448.5"/><ellipse cx="221" cy="464.5" fill="#B4A7E5" rx="11" ry="11" style="stroke:#181818;stroke-width:1.0;"/><path d="M221.9531,461.2813 L223.6719,461.2813 C224.0625,461.2813 224.25,461.25 224.375,461.1719 C224.6406,461.0156 224.7813,460.7344 224.7813,460.4375 C224.7813,460.1719 224.6719,459.9063 224.4375,459.7344 C224.2656,459.625 224.125,459.5938 223.6719,459.5938 L218.5313,459.5938 C218.0938,459.5938 217.9688,459.6094 217.8125,459.7031 C217.5625,459.8594 217.4063,460.1563 217.4063,460.4375 C217.4063,460.7188 217.5469,460.9688 217.7656,461.1406 C217.9219,461.25 218.1094,461.2813 218.5313,461.2813 L220.25,461.2813 L220.25,467.7969 L218.5313,467.7969 C218.0938,467.7969 217.9688,467.8125 217.8125,467.9219 C217.5625,468.0781 217.4063,468.3594 217.4063,468.6563 C217.4063,468.9063 217.5469,469.1719 217.7656,469.3281 C217.9219,469.4531 218.125,469.5 218.5313,469.5 L223.6719,469.5 C224.4219,469.5 224.7813,469.2188 224.7813,468.6563 C224.7813,468.375 224.6719,468.125 224.4375,467.9531 C224.2656,467.8281 224.125,467.7969 223.6719,467.7969 L221.9531,467.7969 L221.9531,461.2813 Z " fill="#000000"/><text fill="#000000" font-family="sans-serif" font-size="14" font-style="italic" lengthAdjust="spacing" textLength="118" x="235" y="469.3467">MessageStorage</text><line style="stroke:#181818;stroke-width:0.5;" x1="207" x2="355" y1="480.5" y2="480.5"/><line style="stroke:#181818;stroke-width:0.5;" x1="207" x2="355" y1="488.5" y2="488.5"/></g><!--class StyleStorage--><g id="elem_StyleStorage"><rect codeLine="20" fill="#F1F1F1" height="48" id="StyleStorage" rx="2.5" ry="2.5" style="stroke:#181818;stroke-width:0.5;" width="123" x="47.5" y="448.5"/><ellipse cx="62.5" cy="464.5" fill="#B4A7E5" rx="11" ry="11" style="stroke:#181818;stroke-width:1.0;"/><path d="M63.4531,461.2813 L65.1719,461.2813 C65.5625,461.2813 65.75,461.25 65.875,461.1719 C66.1406,461.0156 66.2813,460.7344 66.2813,460.4375 C66.2813,460.1719 66.1719,459.9063 65.9375,459.7344 C65.7656,459.625 65.625,459.5938 65.1719,459.5938 L60.0313,459.5938 C59.5938,459.5938 59.4688,459.6094 59.3125,459.7031 C59.0625,459.8594 58.9063,460.1563 58.9063,460.4375 C58.9063,460.7188 59.0469,460.9688 59.2656,461.1406 C59.4219,461.25 59.6094,461.2813 60.0313,461.2813 L61.75,461.2813 L61.75,467.7969 L60.0313,467.7969 C59.5938,467.7969 59.4688,467.8125 59.3125,467.9219 C59.0625,468.0781 58.9063,468.3594 58.9063,468.6563 C58.9063,468.9063 59.0469,469.1719 59.2656,469.3281 C59.4219,469.4531 59.625,469.5 60.0313,469.5 L65.1719,469.5 C65.9219,469.5 66.2813,469.2188 66.2813,468.6563 C66.2813,468.375 66.1719,468.125 65.9375,467.9531 C65.7656,467.8281 65.625,467.7969 65.1719,467.7969 L63.4531,467.7969 L63.4531,461.2813 Z " fill="#000000"/><text fill="#000000" font-family="sans-serif" font-size="14" font-style="italic" lengthAdjust="spacing" textLength="91" x="76.5" y="469.3467">StyleStorage</text><line style="stroke:#181818;stroke-width:0.5;" x1="48.5" x2="169.5" y1="480.5" y2="480.5"/><line style="stroke:#181818;stroke-width:0.5;" x1="48.5" x2="169.5" y1="488.5" y2="488.5"/></g><!--reverse link Translator to GlobalTranslator--><g id="link_Translator_GlobalTranslator"><path d="M212.1172,133.0204 C214.2232,113.9154 211.902,107.73 209.097,90.272 " fill="none" id="Translator-backto-GlobalTranslator" style="stroke:#181818;stroke-width:1.0;stroke-dasharray:7.0,7.0;"/><polygon fill="none" points="210.145,150.912,218.0811,133.6778,206.1534,132.363,210.145,150.912" style="stroke:#181818;stroke-width:1.0;"/></g><!--reverse link GlobalTranslator to Translator--><g id="link_GlobalTranslator_Translator"><path codeLine="26" d="M185.7188,102.1362 C183.0698,119.5942 184.54,131.807 186.53,150.912 " fill="none" id="GlobalTranslator-backto-Translator" style="stroke:#181818;stroke-width:1.0;"/><polygon fill="none" points="187.519,90.272,182.6642,95.604,185.7188,102.1362,190.5736,96.8042,187.519,90.272" style="stroke:#181818;stroke-width:1.0;"/><text fill="#000000" font-family="sans-serif" font-size="13" lengthAdjust="spacing" textLength="23" x="159.1611" y="110.0995">0..*</text></g><!--reverse link Component to TranslatableComponent--><g id="link_Component_TranslatableComponent"><path d="M500,108.272 C500,128.224 500,138.821 500,158.763 " fill="none" id="Component-backto-TranslatableComponent" style="stroke:#181818;stroke-width:1.0;"/><polygon fill="none" points="500,90.272,494,108.272,506,108.272,500,90.272" style="stroke:#181818;stroke-width:1.0;"/></g><!--reverse link Translator to MessageTranslator--><g id="link_Translator_MessageTranslator"><path d="M203.0573,233.2268 C205.5963,257.9438 207.282,274.343 209.813,298.982 " fill="none" id="Translator-backto-MessageTranslator" style="stroke:#181818;stroke-width:1.0;"/><polygon fill="none" points="201.218,215.321,197.0887,233.8399,209.0259,232.6137,201.218,215.321" style="stroke:#181818;stroke-width:1.0;"/></g><!--reverse link TranslatableComponent to Message--><g id="link_TranslatableComponent_Message"><path d="M499.572,225.04 C499.082,271.943 498.149,361.354 497.497,423.904 " fill="none" id="TranslatableComponent-backto-Message" style="stroke:#181818;stroke-width:1.0;"/><polygon fill="none" points="499.76,207.041,493.5723,224.9773,505.5716,225.1027,499.76,207.041" style="stroke:#181818;stroke-width:1.0;"/></g><!--reverse link MessageTranslator to MessageTranslator--><g id="link_MessageTranslator_MessageTranslator"><path codeLine="24" d="M308.5911,320.1141 C328.6361,321.0071 331.5,324.279 331.5,331 C331.5,337.721 316.648,341.527 296.603,342.42 " fill="none" id="MessageTranslator-backto-MessageTranslator" style="stroke:#181818;stroke-width:1.0;"/><polygon fill="none" points="296.603,319.58,302.419,323.8431,308.5911,320.1141,302.7751,315.851,296.603,319.58" style="stroke:#181818;stroke-width:1.0;"/><text fill="#000000" font-family="sans-serif" font-size="13" lengthAdjust="spacing" textLength="113" x="337.5" y="335.5669">inheriting children</text><text fill="#000000" font-family="sans-serif" font-size="13" lengthAdjust="spacing" textLength="23" x="304.4787" y="315.0733">0..*</text></g><!--reverse link MessageTranslator to Message--><g id="link_MessageTranslator_Message"><path codeLine="27" d="M293.1611,368.0394 C321.1851,380.8544 342.834,391.072 372,405.5 C383.768,411.322 396.077,417.593 408.186,423.871 " fill="none" id="MessageTranslator-backto-Message" style="stroke:#181818;stroke-width:1.0;"/><polygon fill="none" points="282.248,363.049,286.0411,369.1819,293.1611,368.0394,289.368,361.9065,282.248,363.049" style="stroke:#181818;stroke-width:1.0;"/><text fill="#000000" font-family="sans-serif" font-size="13" lengthAdjust="spacing" textLength="23" x="271.1585" y="383.256">0..*</text></g><!--reverse link MessageTranslator to MessageStorage--><g id="link_MessageTranslator_MessageStorage"><path codeLine="29" d="M233.519,374.0937 C246.049,399.7987 258.26,424.849 269.599,448.112 " fill="none" id="MessageTranslator-backto-MessageStorage" style="stroke:#181818;stroke-width:1.0;"/><polygon fill="none" points="228.261,363.307,227.2944,370.453,233.519,374.0937,234.4856,366.9477,228.261,363.307" style="stroke:#181818;stroke-width:1.0;"/><text fill="#000000" font-family="sans-serif" font-size="13" lengthAdjust="spacing" textLength="24" x="204.9336" y="383.5672">0..1</text></g><!--reverse link MessageTranslator to StyleStorage--><g id="link_MessageTranslator_StyleStorage"><path codeLine="30" d="M182.4875,372.9276 C163.3235,398.6326 143.779,424.849 126.437,448.112 " fill="none" id="MessageTranslator-backto-StyleStorage" style="stroke:#181818;stroke-width:1.0;"/><polygon fill="none" points="189.66,363.307,182.8669,365.7265,182.4875,372.9276,189.2806,370.5081,189.66,363.307" style="stroke:#181818;stroke-width:1.0;"/><text fill="#000000" font-family="sans-serif" font-size="13" lengthAdjust="spacing" textLength="24" x="158.3711" y="383.5672">0..1</text></g><!--SRC=[ZPBHIiCm58RlynI7NKtdYjxA68Y2Dmh2zW9dwTaQF4r2aeb5-kwcjUrIgrDw4NfE_Y__VnAByXKF17Vv6-bmT0IhbICPK1-Orclu49BHUtXaiqFUEjIUCHW7ghHCPTHuE5M5qe7S7YKbnSXOGEX-QTutSCTqRqfhT8HSmPEHo7GXweGnj7_WZkH0xu5qxXD5BMmNRQjqrQkKqNwIy0H_9k-Z9F7UWuVvPD-2vRJ78uSl-_En_mvt1Z9EqVAKR5oYgo9i0POZg32SatiWBvsoROQs9qtPN41xQ1_sXPnNFZIqFsDkOeQu98rDg7Wer_4JqudChhFiSWPckPoEwnQKBiYfeFG1PA4uTwI5c3oUX94ydl-SzPkZcz6kFiBPlMdOJm00]--></g></svg>